# xmcd
#
# Track frame offsets:
#	182
#	20335
#	37145
#	56355
#	73000
#	90800
#	108282
#	128220
#	146195
#	164990
#
# Disc length: 2416 seconds
#
# Revision: 3
# Processed by: cddbd v1.5.1PL0 Copyright (c) Steve Scherf et al.
# Submitted via: dBpowerAMP V4.0
#
DISCID=8b096e0a
DTITLE=Chaka Khan - Naughty
DYEAR=1980
DGENRE=R&B
TTITLE0=Clouds
TTITLE1=Get Ready, Get Set
TTITLE2=Move Me No Mountain
TTITLE3=Nothing's Gonna Take You Away
TTITLE4=So Naughty
TTITLE5=Too Much Love
TTITLE6=All Nights's All Right
TTITLE7=What You Did
TTITLE8=Papillon (aka Hot Butterfly)
TTITLE9=Our Love's In Danger
EXTD=
EXTT0=
EXTT1=
EXTT2=
EXTT3=
EXTT4=
EXTT5=
EXTT6=
EXTT7=
EXTT8=
EXTT9=
PLAYORDER=
